PathFileType	4	(X/Y/Z)	\\Move.snu.ac.kr\motion\Animal\091204_091205_Bird\091205_bird\Project 2\Capture day 2\Session 1\pigeon_007_new_after_delete_unlabel.trc
DataRate	CameraRate	NumFrames	NumMarkers	Units	OrigDataRate	OrigDataStartFrame	OrigNumFrames
240.0	240.0	26	14	mm	240.0	209	5319
Frame#	Time	14MarkersBird:Head			14MarkersBird:C_back			14MarkersBird:Spine			14MarkersBird:L-shoulder			14MarkersBird:L-elbow			14MarkersBird:L-wrist			14MarkersBird:L-hand			14MarkersBird:R-shoulder			14MarkersBird:R-elbow			14MarkersBird:R-Wrist			14MarkersBird:R-hand			14MarkersBird:C_Tail			14MarkersBird:L-Tale			14MarkersBird:R-Tale			
		X1	Y1	Z1	X2	Y2	Z2	X3	Y3	Z3	X4	Y4	Z4	X5	Y5	Z5	X6	Y6	Z6	X7	Y7	Z7	X8	Y8	Z8	X9	Y9	Z9	X10	Y10	Z10	X11	Y11	Z11	X12	Y12	Z12	X13	Y13	Z13	X14	Y14	Z14	

2763	11.508	49.19954	808.71661	-1429.95837	-9.39691	809.65057	-1439.50366	-62.66091	801.97253	-1448.42126	23.09512	804.02637	-1457.22449	-8.36664	813.07947	-1476.98755	33.94481	816.76599	-1486.78979	45.05547	794.10120	-1494.70032	15.87773	798.80804	-1412.88354	-18.09190	806.15814	-1396.58252	22.00668	802.38367	-1383.38159	37.21362	768.64008	-1374.41943	-151.13402	717.48206	-1483.95300	-88.33144	765.35699	-1546.94348	-117.52334	721.65594	-1380.56311	
2764	11.512	68.53681	807.51196	-1427.75378	10.12994	806.91528	-1437.58789	-42.76557	800.06293	-1446.53271	42.26867	801.76398	-1454.77881	8.43066	815.58447	-1468.77502	48.21497	825.33856	-1483.91528	52.91678	804.81946	-1499.83289	34.80728	797.60535	-1411.70288	-0.36059	811.52704	-1401.11658	36.43482	811.06641	-1380.25977	43.06309	778.86383	-1364.15662	-131.11668	715.33917	-1483.05664	-69.07276	766.80902	-1545.68518	-99.53957	721.43170	-1378.60156	
2765	11.517	87.68717	806.15930	-1425.57861	29.47402	804.06976	-1435.74316	-22.96427	797.82043	-1444.65247	61.37259	799.29700	-1452.31531	26.19173	816.26392	-1459.52661	62.19094	833.03632	-1477.84851	58.85388	818.00116	-1499.99658	53.79948	796.45209	-1410.76135	19.86799	815.01367	-1408.43225	51.50425	819.81311	-1380.38525	47.78646	793.31543	-1357.24805	-111.77775	713.78845	-1482.29724	-48.91511	768.17889	-1544.54407	-82.26435	722.77783	-1375.68750	
2766	11.521	106.63687	804.61633	-1423.41064	48.66124	801.14789	-1433.95496	-3.33027	794.95905	-1443.25537	80.31211	796.65692	-1449.93152	45.30634	815.38995	-1450.46057	76.38792	839.13745	-1469.36670	65.28970	832.60944	-1493.73523	72.75631	794.98547	-1409.82239	39.79584	815.80377	-1413.40942	67.60117	827.76184	-1383.38379	53.52087	811.63763	-1356.13123	-93.52650	713.35413	-1481.81836	-27.91236	769.05688	-1543.45728	-64.96238	724.61517	-1372.23865	
2767	11.525	125.40424	802.82404	-1421.24536	67.71750	798.18341	-1432.20825	16.20628	792.09235	-1441.75024	99.09960	793.87756	-1447.66943	66.27490	814.04193	-1442.52527	91.41653	843.40747	-1460.15845	74.46663	846.61670	-1481.70056	91.58631	792.94244	-1408.55579	59.78546	814.86316	-1417.29565	84.87226	834.18311	-1387.78003	62.55077	831.58649	-1361.66504	-76.46648	714.33197	-1481.68164	-6.31828	769.14734	-1542.34998	-47.08458	726.10370	-1368.57910	
2768	11.529	144.02826	800.67535	-1419.09253	86.66869	795.21027	-1430.48840	35.45411	789.15967	-1440.14172	117.87782	791.04688	-1445.55090	88.85212	813.08978	-1436.30066	107.72818	846.03485	-1452.27905	87.67527	857.86981	-1466.62134	110.37301	790.38477	-1406.70874	79.95670	812.86475	-1419.14624	103.12048	838.63428	-1391.40161	76.39063	849.94617	-1371.76440	-60.28895	716.60974	-1481.73560	15.55652	768.23370	-1541.16321	-28.54038	726.91113	-1364.84949	
2769	11.533	162.56419	798.11261	-1416.95349	105.54071	792.26221	-1428.78052	54.46582	786.21661	-1438.43567	136.82822	788.29431	-1443.65088	111.60810	812.38983	-1432.20715	125.32974	847.24292	-1447.55518	105.16196	865.09137	-1452.85291	129.25464	787.53986	-1404.22668	100.68448	810.69135	-1418.48340	121.73586	840.83502	-1392.00366	95.00198	863.85553	-1381.35010	-44.35604	719.53827	-1481.67615	37.38184	766.25189	-1539.84839	-9.53444	726.92114	-1361.17236	
2770	11.538	181.09851	795.21887	-1414.81897	124.35947	789.37317	-1427.06970	73.29403	783.31860	-1436.63806	155.98782	785.71576	-1442.01782	132.87210	811.11084	-1430.54211	143.89265	846.99512	-1446.91687	126.10104	868.52832	-1444.90649	148.22751	784.56519	-1401.31531	122.01633	808.86517	-1415.24133	139.94786	840.54114	-1388.24817	116.60520	871.74463	-1384.39221	-27.98776	722.08594	-1481.21497	58.85085	763.41864	-1538.34583	9.70034	726.03046	-1357.71558	
2771	11.542	199.70302	792.15173	-1412.67297	143.15086	786.57697	-1425.34131	91.99136	780.52112	-1434.75464	175.23724	783.29199	-1440.53638	152.26404	808.91754	-1431.15173	163.22433	844.94934	-1450.20544	149.00974	869.13580	-1445.27344	167.22429	781.58850	-1398.33374	143.19266	807.23438	-1409.73157	157.44914	837.47772	-1380.41138	138.62482	873.12695	-1377.69031	-10.76010	723.21759	-1480.15759	79.76151	760.14502	-1536.60583	29.03481	724.11450	-1354.65857	
2772	11.546	218.42972	789.02191	-1410.50708	161.94080	783.90747	-1423.58044	110.61044	777.87976	-1432.79163	194.44273	780.92944	-1438.95996	170.77763	806.14636	-1433.54150	183.40059	840.65009	-1456.58496	172.69339	867.07843	-1453.61353	186.20964	778.64923	-1395.53870	163.09747	805.14368	-1402.72351	174.63678	831.39362	-1369.88171	159.52913	867.93756	-1362.62317	7.41778	722.25385	-1478.41602	100.05157	756.74670	-1534.64807	48.44460	721.30255	-1352.06763	
2773	11.550	237.30121	785.92169	-1408.35339	180.75517	781.39850	-1421.77234	129.20386	775.44995	-1430.75488	213.60823	778.54413	-1437.16162	189.62943	803.05054	-1437.20862	204.58656	833.77039	-1464.88574	197.01035	861.28369	-1467.39124	205.24347	775.66522	-1392.92090	181.47858	801.93152	-1395.17041	192.32234	822.26880	-1358.26636	179.76430	856.39349	-1343.22327	26.46324	719.02759	-1475.99670	119.79034	753.28052	-1532.54736	67.93791	718.10327	-1349.83203	
2774	11.554	256.30997	782.90393	-1406.23486	199.61987	779.08386	-1419.90210	147.82425	773.28723	-1428.65015	232.85010	776.12122	-1435.23547	209.45097	799.45325	-1441.63928	226.93796	824.12103	-1473.61365	222.52386	850.68164	-1483.05334	224.41257	772.52753	-1390.34375	199.23000	797.21173	-1387.67004	211.38391	810.42523	-1347.04858	201.06258	839.20697	-1323.61523	46.30614	713.88666	-1473.01123	139.11296	749.63434	-1530.36108	87.51859	715.21222	-1347.70667	
2775	11.558	275.42883	780.03088	-1404.13464	218.56082	776.99750	-1417.95508	166.52425	771.44708	-1426.48364	252.24486	773.68903	-1433.31750	230.34677	795.03540	-1446.10950	250.58423	811.78363	-1481.03870	249.68633	835.18933	-1497.11450	243.76605	769.28491	-1387.77185	219.10217	791.29370	-1379.87671	232.51317	796.50763	-1337.59998	224.99690	817.67682	-1307.05310	66.88649	707.59546	-1469.64038	158.10965	745.73547	-1528.10327	107.17791	713.12140	-1345.44324	
2776	11.563	294.63199	777.37738	-1402.02905	237.60390	775.17316	-1415.91638	185.35643	769.98505	-1424.26111	271.77075	771.29254	-1431.41418	252.04785	789.53943	-1449.88208	275.42258	797.28510	-1485.57629	278.41504	815.71680	-1506.87219	263.30688	766.20068	-1385.30872	239.53610	783.42371	-1371.92908	255.88432	781.38135	-1331.06836	252.02611	793.58276	-1295.68750	88.04027	701.13983	-1466.01660	176.72192	741.61304	-1525.70093	126.89376	711.88556	-1342.90906	
2777	11.567	313.93744	775.00494	-1399.91357	256.71054	773.56543	-1413.80676	204.37344	768.95660	-1421.98853	291.40286	769.02588	-1429.45618	274.15433	782.99500	-1452.40649	300.91254	781.62469	-1486.20483	307.98752	793.68170	-1510.61865	283.03409	763.62579	-1383.06335	260.85736	776.07147	-1365.41760	280.95700	765.96729	-1328.17651	281.54651	768.82684	-1290.70569	109.43193	695.42334	-1462.11572	194.76161	737.36725	-1523.00269	146.62108	711.20148	-1340.16406	
2778	11.571	333.39578	772.92438	-1397.78784	276.58551	773.04492	-1411.64172	223.62791	768.41730	-1419.67188	311.14288	767.00299	-1427.39685	296.22165	775.84094	-1453.42542	326.20734	766.16937	-1482.67590	337.19724	770.88586	-1507.75208	302.93341	761.75812	-1381.03979	284.19632	768.62830	-1361.86694	306.74988	751.30627	-1329.05383	312.27109	745.25885	-1292.32715	130.65495	690.98810	-1457.79126	212.09291	733.15259	-1519.89148	166.28732	710.67419	-1337.43396	
2779	11.575	353.05240	771.09991	-1395.63269	296.25146	772.69476	-1409.32349	243.17242	768.42255	-1417.31702	331.00189	765.31549	-1425.24927	317.84479	768.81213	-1452.94910	350.51431	752.41028	-1475.53418	364.82791	749.45605	-1498.66589	322.97018	760.57404	-1379.12988	306.71970	761.83032	-1358.56140	332.25974	738.60828	-1333.19421	342.74081	724.66449	-1299.89294	151.36382	687.92816	-1452.94885	228.82213	729.11383	-1516.35986	185.83527	709.94495	-1334.98938	
2780	11.579	372.95813	769.45306	-1393.44604	316.08136	772.35284	-1407.07654	262.94162	768.91339	-1414.91370	350.96500	763.99200	-1423.03918	338.70471	762.57373	-1451.24792	373.41800	741.68939	-1465.95374	390.08276	731.63770	-1484.75452	343.10202	759.88641	-1377.18066	328.72287	756.00708	-1356.58423	356.82788	729.16284	-1339.44763	371.79132	708.69836	-1311.86133	171.41777	686.03174	-1447.73230	245.32780	725.31659	-1512.53992	205.26935	708.73767	-1332.99805	
2781	11.583	393.13965	767.93042	-1391.26563	336.02390	772.05298	-1404.82983	282.73666	768.89447	-1412.40271	371.01978	762.99957	-1420.78894	358.61636	757.52344	-1448.76331	394.95898	734.96149	-1455.51636	412.80768	719.26294	-1468.26709	363.31064	759.48395	-1375.05896	349.54984	751.49146	-1355.39026	380.15347	723.94043	-1346.15222	398.73196	698.55548	-1325.80481	190.95787	684.94336	-1442.52393	262.10034	721.79474	-1508.67297	224.67203	706.94318	-1331.43604	
2782	11.587	413.57632	766.51593	-1389.12012	356.14047	771.66040	-1402.56360	302.95578	767.83649	-1410.18213	391.15271	762.21246	-1418.49951	377.52365	753.87610	-1445.99878	415.41870	732.53345	-1445.95520	433.41443	713.19293	-1452.01721	383.56931	759.09216	-1372.77319	368.96075	748.46997	-1354.33093	402.10464	723.11353	-1351.44910	423.31226	694.50464	-1338.68176	210.32370	684.29352	-1437.73267	279.53748	718.58081	-1504.95544	244.15805	704.69891	-1330.10364	
2783	11.592	434.25565	765.19177	-1386.98364	376.57281	771.06116	-1400.23938	323.25946	766.88434	-1407.81726	411.36575	761.44763	-1416.16711	395.50360	751.85516	-1443.37317	435.04288	733.91504	-1438.77686	452.52335	712.82080	-1438.84094	403.81219	758.41669	-1370.44775	387.09125	747.06042	-1352.87329	422.61136	725.89594	-1353.80103	445.51016	695.55206	-1347.57117	229.83228	683.80829	-1433.56775	297.81174	715.68231	-1501.45056	263.84036	702.34705	-1328.75085	
2784	11.596	455.16516	763.93958	-1384.80103	397.35953	770.07117	-1397.81689	343.86395	765.64563	-1405.39954	431.67477	760.52509	-1413.80261	412.77826	751.69897	-1441.02271	453.96176	738.02917	-1434.82666	470.66534	716.28308	-1430.82751	424.04120	757.34003	-1368.15442	404.23260	747.45001	-1350.79871	441.74078	730.97247	-1352.52710	465.28192	699.68018	-1350.65698	249.65167	683.30646	-1429.99329	316.84979	713.00775	-1498.10999	283.76212	700.25793	-1327.21680	
2785	11.600	476.25717	762.74921	-1382.53772	418.42740	768.50665	-1395.25500	364.75858	764.22430	-1402.94275	452.09030	759.34070	-1411.39612	429.70294	753.44464	-1438.61328	472.29544	743.76715	-1433.98047	488.02097	721.44366	-1428.75293	444.35471	755.99524	-1365.88196	420.80008	749.74420	-1348.39990	459.74088	737.16431	-1347.98413	482.47653	704.85657	-1347.74915	269.83414	682.59766	-1426.81958	336.42349	710.52789	-1494.90027	303.88138	698.69684	-1325.44299	
2786	11.604	497.42664	761.62219	-1380.19507	439.68600	766.31848	-1392.53650	385.87900	762.67194	-1400.47449	472.59964	757.86920	-1408.89832	446.71448	756.71454	-1435.39856	490.11215	750.45538	-1435.12683	504.24265	727.08820	-1431.99548	464.81604	754.58398	-1363.65588	437.45035	753.68866	-1346.48425	477.01657	743.95050	-1341.29224	496.92831	710.17450	-1339.99695	290.42059	681.46204	-1423.85828	356.30734	708.51428	-1491.92627	324.04855	697.89514	-1323.36597	
2787	11.608	518.55084	760.54938	-1377.78784	461.05109	763.62323	-1389.68677	407.14859	760.98376	-1398.00623	493.18365	756.16425	-1406.25183	463.48285	760.97882	-1432.78784	507.38229	757.88416	-1436.54712	518.49536	733.42078	-1438.69031	485.39160	753.27399	-1361.58862	455.04065	758.56647	-1346.00342	493.91394	751.37286	-1334.06165	508.54330	716.18469	-1329.18616	311.39679	679.81213	-1421.05432	376.43344	707.48505	-1489.41479	344.11169	698.09601	-1320.86902	
2788	11.613	539.52759	759.50812	-1375.33337	482.50458	760.70026	-1386.76440	428.49899	759.12659	-1395.55054	513.78809	754.22430	-1403.43335	481.75488	765.44751	-1425.75378	524.06616	765.88269	-1436.54761	530.10333	741.59857	-1446.01123	506.01300	752.13226	-1359.79126	472.27948	764.38971	-1345.57739	510.66101	759.42114	-1328.08862	517.70416	724.33252	-1317.46021	332.58377	677.87073	-1418.54749	396.96008	707.85535	-1487.56042	364.07297	699.44678	-1317.82727	
